<svg width="61" height="12" viewBox="0 0 61 12" fill="none" xmlns="http://www.w3.org/2000/svg">
<path d="M3.92 5.744V8.754C3.92 9.146 3.79867 9.46333 3.556 9.706C3.31333 9.93933 2.996 10.056 2.604 10.056H1.596C1.204 10.056 0.886667 9.93933 0.644 9.706C0.401333 9.46333 0.28 9.146 0.28 8.754V1.446C0.28 1.054 0.401333 0.741333 0.644 0.508C0.886667 0.265333 1.204 0.143999 1.596 0.143999H2.604C2.996 0.143999 3.31333 0.265333 3.556 0.508C3.79867 0.741333 3.92 1.054 3.92 1.446V4.582L2.59 4.442V1.516C2.59 1.46933 2.56667 1.446 2.52 1.446H1.68C1.63333 1.446 1.61 1.46933 1.61 1.516V8.684C1.61 8.73067 1.63333 8.754 1.68 8.754H2.52C2.56667 8.754 2.59 8.73067 2.59 8.684V5.744H3.92ZM8.48127 10C8.05193 10 7.7066 9.87867 7.44527 9.636C7.19327 9.384 7.06727 9.07133 7.06727 8.698V4.302C7.06727 3.91933 7.19327 3.60667 7.44527 3.364C7.7066 3.12133 8.05193 3 8.48127 3H8.53727C8.78927 3 9.01327 3.06067 9.20927 3.182V3H10.5393V8.698H10.7353L10.8753 10H9.20927V9.454L8.85927 10H8.48127ZM8.46727 4.302C8.4206 4.302 8.39727 4.32533 8.39727 4.372V8.628C8.39727 8.67467 8.4206 8.698 8.46727 8.698H9.20927V4.302H8.46727ZM15.4079 3V3.616L15.7859 3H16.7239V4.358H15.4079V10H14.0779V4.302H13.7419L13.8819 3H15.4079ZM21.2655 11.862H19.9355V4.302H19.5995L19.7395 3H21.2655V3.546L21.6155 3H21.9935C22.4228 3 22.7635 3.12133 23.0155 3.364C23.2768 3.60667 23.4075 3.91933 23.4075 4.302V8.698C23.4075 9.07133 23.2768 9.384 23.0155 9.636C22.7635 9.87867 22.4228 10 21.9935 10H21.9375C21.6855 10 21.4615 9.93933 21.2655 9.818V11.862ZM22.0075 4.302H21.2655V8.698H22.0075C22.0541 8.698 22.0775 8.67467 22.0775 8.628V4.372C22.0775 4.32533 22.0541 4.302 22.0075 4.302ZM26.5541 1.502V0.199999H30.4041V1.502H29.1441V10H27.8141V1.502H26.5541ZM34.3888 3V3.616L34.7668 3H35.7048V4.358H34.3888V10H33.0588V4.302H32.7228L32.8628 3H34.3888ZM40.066 10C39.6367 10 39.2914 9.87867 39.03 9.636C38.778 9.384 38.652 9.07133 38.652 8.698V4.302C38.652 3.91933 38.778 3.60667 39.03 3.364C39.2914 3.12133 39.6367 3 40.066 3H40.122C40.374 3 40.598 3.06067 40.794 3.182V3H42.124V8.698H42.32L42.46 10H40.794V9.454L40.444 10H40.066ZM40.052 4.302C40.0054 4.302 39.982 4.32533 39.982 4.372V8.628C39.982 8.67467 40.0054 8.698 40.052 8.698H40.794V4.302H40.052ZM45.1899 3H46.4219L47.2059 7.522L47.9899 3H49.2219L47.8779 10H46.5339L45.1899 3ZM52.1582 8.754V4.246C52.1582 3.854 52.2795 3.54133 52.5222 3.308C52.7649 3.06533 53.0822 2.944 53.4742 2.944H54.3422C54.7342 2.944 55.0515 3.06533 55.2942 3.308C55.5369 3.54133 55.6582 3.854 55.6582 4.246V5.968H54.3282V4.316C54.3282 4.26933 54.3049 4.246 54.2582 4.246H53.5582C53.5115 4.246 53.4882 4.26933 53.4882 4.316V5.968H55.6582V7.27H53.4882V8.684C53.4882 8.73067 53.5115 8.754 53.5582 8.754H54.2582C54.3049 8.754 54.3282 8.73533 54.3282 8.698V7.928H55.6582V8.754C55.6582 9.146 55.5369 9.46333 55.2942 9.706C55.0515 9.93933 54.7342 10.056 54.3422 10.056H53.4742C53.0822 10.056 52.7649 9.93933 52.5222 9.706C52.2795 9.46333 52.1582 9.146 52.1582 8.754ZM60.2787 0.199999L60.2927 8.698H60.6427L60.7827 10H58.9627L58.9487 1.502H58.6687L58.8087 0.199999H60.2787Z" fill="white"/>
</svg>
